<mxfile host="65bd71144e">
    <diagram id="sPIJyBdG8q3Y8P7PcmEc" name="Page-1">
        <mxGraphModel dx="3795" dy="1823" grid="1" gridSize="10" guides="1" tooltips="1" connect="1" arrows="1" fold="1" page="1" pageScale="1" pageWidth="850" pageHeight="1100" background="#ffffff" math="0" shadow="0">
            <root>
                <mxCell id="0"/>
                <mxCell id="1" parent="0"/>
                <mxCell id="32" value="Transactions, overrides, events" style="edgeStyle=none;html=1;fontSize=14;dashed=1;" parent="1" edge="1">
                    <mxGeometry x="-0.036" y="-10" relative="1" as="geometry">
                        <mxPoint x="1080" y="1220" as="sourcePoint"/>
                        <mxPoint x="831" y="1219.5" as="targetPoint"/>
                        <mxPoint as="offset"/>
                    </mxGeometry>
                </mxCell>
                <mxCell id="33" value="Create case e.g. waive, Cancel request" style="edgeStyle=none;html=1;exitX=1;exitY=0.133;exitDx=0;exitDy=0;exitPerimeter=0;fontSize=14;strokeWidth=2;strokeColor=#2196F3;fontColor=#2196F3;fontStyle=1;labelBackgroundColor=none;entryX=0;entryY=0.5;entryDx=0;entryDy=0;" parent="1" target="10" edge="1">
                    <mxGeometry x="-0.0104" y="8" relative="1" as="geometry">
                        <mxPoint x="830" y="94.16499999999996" as="sourcePoint"/>
                        <mxPoint x="1214" y="94.02229729729731" as="targetPoint"/>
                        <mxPoint as="offset"/>
                    </mxGeometry>
                </mxCell>
                <mxCell id="35" value="Log signature" style="edgeStyle=none;html=1;fontSize=14;fontStyle=0;strokeWidth=1;labelBackgroundColor=none;entryX=0;entryY=0.5;entryDx=0;entryDy=0;" parent="1" target="23" edge="1">
                    <mxGeometry x="-0.0168" y="10" relative="1" as="geometry">
                        <mxPoint x="831" y="197" as="sourcePoint"/>
                        <mxPoint x="1211" y="196.5" as="targetPoint"/>
                        <mxPoint as="offset"/>
                    </mxGeometry>
                </mxCell>
                <mxCell id="40" value="Branch convergence" style="edgeStyle=none;html=1;fontStyle=1;labelBackgroundColor=none;fontColor=#2196F3;strokeWidth=2;strokeColor=#2196F3;fontSize=14;entryX=0;entryY=0.5;entryDx=0;entryDy=0;" parent="1" target="41" edge="1">
                    <mxGeometry x="0.04" y="10" relative="1" as="geometry">
                        <mxPoint x="1230" y="280" as="sourcePoint"/>
                        <mxPoint x="1448" y="280" as="targetPoint"/>
                        <mxPoint as="offset"/>
                    </mxGeometry>
                </mxCell>
                <mxCell id="46" value="Migrate safebox data from source, link/de-link" style="edgeStyle=none;html=1;strokeWidth=2;strokeColor=#2196F3;fontStyle=1;fontColor=#2196F3;labelBackgroundColor=none;fontSize=14;" parent="1" target="28" edge="1">
                    <mxGeometry x="0.0005" y="11" relative="1" as="geometry">
                        <mxPoint as="offset"/>
                        <mxPoint x="830" y="46" as="sourcePoint"/>
                    </mxGeometry>
                </mxCell>
                <mxCell id="53" value="&lt;font color=&quot;#000000&quot; style=&quot;font-size: 14px;&quot;&gt;Safebox forms e.g. registration form, termination form&lt;/font&gt;" style="edgeStyle=none;html=1;labelBackgroundColor=none;fontColor=#2196F3;fontStyle=0;fontSize=14;strokeWidth=1;strokeColor=#000000;entryX=0;entryY=0.5;entryDx=0;entryDy=0;" parent="1" target="18" edge="1">
                    <mxGeometry x="-0.0257" y="10" relative="1" as="geometry">
                        <mxPoint x="830" y="146" as="sourcePoint"/>
                        <mxPoint x="1200" y="146.43023255813955" as="targetPoint"/>
                        <mxPoint as="offset"/>
                    </mxGeometry>
                </mxCell>
                <mxCell id="2" value="801 SF" style="rounded=0;whiteSpace=wrap;html=1;fillColor=#2196F3;fontStyle=1;fontColor=#FFFFFF;fontSize=20;" parent="1" vertex="1">
                    <mxGeometry x="710" y="10" width="120" height="1150" as="geometry"/>
                </mxCell>
                <mxCell id="14" value="Generate tax invoice" style="edgeStyle=none;html=1;fontSize=14;" parent="1" edge="1">
                    <mxGeometry x="0.0064" y="11" relative="1" as="geometry">
                        <mxPoint x="1201" y="538.29" as="sourcePoint"/>
                        <mxPoint x="1370" y="538.5" as="targetPoint"/>
                        <mxPoint as="offset"/>
                    </mxGeometry>
                </mxCell>
                <mxCell id="9" value="818 IIP" style="rounded=0;whiteSpace=wrap;html=1;fillColor=#FF9800;fontStyle=0;fontSize=14;" parent="1" vertex="1">
                    <mxGeometry x="1110" y="260" width="120" height="137.5" as="geometry"/>
                </mxCell>
                <mxCell id="10" value="711 SmartServe" style="rounded=0;whiteSpace=wrap;html=1;fillColor=#FF9800;fontStyle=0;fontSize=14;" parent="1" vertex="1">
                    <mxGeometry x="1220" y="76" width="120" height="41" as="geometry"/>
                </mxCell>
                <mxCell id="12" value="176.01 CIS-Open" style="rounded=0;whiteSpace=wrap;html=1;fillColor=#FF9800;fontStyle=0;fontSize=14;" parent="1" vertex="1">
                    <mxGeometry x="1520" y="308.5" width="120" height="41" as="geometry"/>
                </mxCell>
                <mxCell id="36" value="Query tax invoice,&lt;br&gt;Account statement fee deduct" style="edgeStyle=none;html=1;fontSize=14;labelBackgroundColor=none;" parent="1" edge="1">
                    <mxGeometry x="-0.0552" relative="1" as="geometry">
                        <mxPoint x="1491.5" y="541.6" as="sourcePoint"/>
                        <mxPoint x="1700" y="542" as="targetPoint"/>
                        <mxPoint as="offset"/>
                    </mxGeometry>
                </mxCell>
                <mxCell id="38" value="Receipt" style="edgeStyle=none;html=1;fontSize=14;entryX=0;entryY=0.5;entryDx=0;entryDy=0;verticalAlign=bottom;" parent="1" target="37" edge="1">
                    <mxGeometry x="-0.0619" relative="1" as="geometry">
                        <mxPoint x="1491.5" y="588.6" as="sourcePoint"/>
                        <mxPoint x="1541.5" y="588.6" as="targetPoint"/>
                        <Array as="points">
                            <mxPoint x="1590" y="589"/>
                        </Array>
                        <mxPoint as="offset"/>
                    </mxGeometry>
                </mxCell>
                <mxCell id="43" value="Export safebox&amp;nbsp;data" style="html=1;fontSize=14;strokeWidth=2;strokeColor=#2196F3;fontStyle=1;fontColor=#2196F3;dashed=1;" parent="1" edge="1">
                    <mxGeometry x="-0.0533" y="11" relative="1" as="geometry">
                        <mxPoint x="1080" y="951" as="targetPoint"/>
                        <mxPoint as="offset"/>
                        <mxPoint x="830" y="951" as="sourcePoint"/>
                    </mxGeometry>
                </mxCell>
                <mxCell id="13" value="784 CSFs" style="rounded=0;whiteSpace=wrap;html=1;fillColor=#FF9800;fontStyle=0;fontSize=14;" parent="1" vertex="1">
                    <mxGeometry x="1370" y="520.5" width="120" height="389.5" as="geometry"/>
                </mxCell>
                <mxCell id="17" style="edgeStyle=none;html=1;strokeWidth=2;strokeColor=#2196F3;fontSize=14;" parent="1" source="15" target="16" edge="1">
                    <mxGeometry relative="1" as="geometry"/>
                </mxCell>
                <mxCell id="15" value="668 PCB" style="rounded=0;whiteSpace=wrap;html=1;fillColor=#FF9800;fontStyle=0;fontSize=14;" parent="1" vertex="1">
                    <mxGeometry x="1691.5" y="260" width="120" height="41" as="geometry"/>
                </mxCell>
                <mxCell id="16" value="668.02 PCB_PD" style="rounded=0;whiteSpace=wrap;html=1;fillColor=#FF9800;fontStyle=0;fontSize=14;" parent="1" vertex="1">
                    <mxGeometry x="1851.5" y="260" width="120" height="41" as="geometry"/>
                </mxCell>
                <mxCell id="18" value="718.03 KDMS" style="rounded=0;whiteSpace=wrap;html=1;fillColor=#FF9800;fontStyle=0;fontSize=14;" parent="1" vertex="1">
                    <mxGeometry x="1220" y="126" width="120" height="41" as="geometry"/>
                </mxCell>
                <mxCell id="19" value="452.03 KDP" style="rounded=0;whiteSpace=wrap;html=1;fillColor=#E1F5FE;fontStyle=0;fontSize=14;" parent="1" vertex="1">
                    <mxGeometry x="1701.5" y="518.5" width="120" height="41" as="geometry"/>
                </mxCell>
                <mxCell id="23" value="758 NDID-K+ID" style="rounded=0;whiteSpace=wrap;html=1;fillColor=#E1F5FE;fontStyle=0;fontSize=14;" parent="1" vertex="1">
                    <mxGeometry x="1220" y="176" width="120" height="41" as="geometry"/>
                </mxCell>
                <mxCell id="28" value="492 S1-ESSP" style="rounded=0;whiteSpace=wrap;html=1;fillColor=#FF9800;fontStyle=0;fontSize=14;" parent="1" vertex="1">
                    <mxGeometry x="1220" y="25" width="120" height="41" as="geometry"/>
                </mxCell>
                <mxCell id="29" value="718.02 EBAN" style="rounded=0;whiteSpace=wrap;html=1;fillColor=#FF9800;fontStyle=0;fontSize=14;" parent="1" vertex="1">
                    <mxGeometry x="1080" y="1199" width="120" height="41" as="geometry"/>
                </mxCell>
                <mxCell id="31" value="Export safebox data" style="edgeStyle=none;html=1;fontSize=14;dashed=1;strokeWidth=2;strokeColor=#2196F3;fontStyle=1;fontColor=#2196F3;" parent="1" edge="1">
                    <mxGeometry x="-0.0487" y="11" relative="1" as="geometry">
                        <mxPoint x="830" y="1001" as="sourcePoint"/>
                        <mxPoint x="1080" y="1001" as="targetPoint"/>
                        <mxPoint x="-1" as="offset"/>
                    </mxGeometry>
                </mxCell>
                <mxCell id="134" value="PDPA Inactive CIS ID" style="edgeStyle=none;html=1;dashed=1;strokeColor=#000000;strokeWidth=1;fontSize=14;" parent="1" source="30" edge="1">
                    <mxGeometry y="10" relative="1" as="geometry">
                        <mxPoint as="offset"/>
                        <mxPoint x="1370" y="999.5" as="targetPoint"/>
                    </mxGeometry>
                </mxCell>
                <mxCell id="30" value="699 SP4-Tools" style="rounded=0;whiteSpace=wrap;html=1;fillColor=#FF9800;fontStyle=0;fontSize=14;" parent="1" vertex="1">
                    <mxGeometry x="1080" y="980.5" width="120" height="41" as="geometry"/>
                </mxCell>
                <mxCell id="37" value="718.01 E-DOC GEN" style="rounded=0;whiteSpace=wrap;html=1;fillColor=#E1F5FE;fontStyle=0;fontSize=14;" parent="1" vertex="1">
                    <mxGeometry x="1701.5" y="568.5" width="120" height="41" as="geometry"/>
                </mxCell>
                <mxCell id="42" style="edgeStyle=none;html=1;strokeWidth=2;strokeColor=#2196F3;fontSize=14;" parent="1" source="41" target="15" edge="1">
                    <mxGeometry relative="1" as="geometry"/>
                </mxCell>
                <mxCell id="41" value="668.11 CBSGW" style="rounded=0;whiteSpace=wrap;html=1;fillColor=#FF9800;fontStyle=0;fontSize=14;" parent="1" vertex="1">
                    <mxGeometry x="1520" y="260" width="120" height="41" as="geometry"/>
                </mxCell>
                <mxCell id="50" value="Query customer wealth current and 6m" style="edgeStyle=none;html=1;entryX=0;entryY=0.5;entryDx=0;entryDy=0;strokeWidth=2;strokeColor=#2196F3;fontStyle=1;fontSize=14;fontColor=#2196F3;" parent="1" target="48" edge="1">
                    <mxGeometry x="-0.0093" y="10" relative="1" as="geometry">
                        <mxPoint x="1230" y="377.5" as="sourcePoint"/>
                        <mxPoint x="1448" y="378.5" as="targetPoint"/>
                        <mxPoint as="offset"/>
                    </mxGeometry>
                </mxCell>
                <mxCell id="52" value="FATCA,&amp;nbsp;DQE" style="edgeStyle=none;html=1;fontStyle=0;fontSize=14;strokeColor=#000000;strokeWidth=1;fontColor=#000000;labelBackgroundColor=none;" parent="1" edge="1">
                    <mxGeometry x="0.0868" y="10" relative="1" as="geometry">
                        <mxPoint x="1200" y="439.33000000000004" as="sourcePoint"/>
                        <mxPoint x="1370" y="439.5" as="targetPoint"/>
                        <mxPoint as="offset"/>
                    </mxGeometry>
                </mxCell>
                <mxCell id="47" value="257 EAI" style="rounded=0;whiteSpace=wrap;html=1;fillColor=#E1F5FE;fontStyle=0;fontSize=14;" parent="1" vertex="1">
                    <mxGeometry x="1080" y="420" width="120" height="489.5" as="geometry"/>
                </mxCell>
                <mxCell id="48" value="655 DIH-Open" style="rounded=0;whiteSpace=wrap;html=1;fillColor=#FF9800;fontStyle=0;fontSize=14;" parent="1" vertex="1">
                    <mxGeometry x="1520" y="357.5" width="120" height="41" as="geometry"/>
                </mxCell>
                <mxCell id="51" value="681 CVRS" style="rounded=0;whiteSpace=wrap;html=1;fillColor=#E1F5FE;fontStyle=0;fontSize=14;" parent="1" vertex="1">
                    <mxGeometry x="1370" y="420" width="120" height="41" as="geometry"/>
                </mxCell>
                <mxCell id="63" value="Product holding" style="edgeStyle=none;html=1;dashed=1;fontSize=14;" parent="1" edge="1">
                    <mxGeometry x="0.0467" y="-11" relative="1" as="geometry">
                        <mxPoint x="1370" y="1124.25" as="sourcePoint"/>
                        <mxPoint x="1200" y="1124.22" as="targetPoint"/>
                        <mxPoint as="offset"/>
                    </mxGeometry>
                </mxCell>
                <mxCell id="61" value="723 RMST" style="rounded=0;whiteSpace=wrap;html=1;fillColor=#E1F5FE;fontStyle=0;fontSize=14;" parent="1" vertex="1">
                    <mxGeometry x="1370" y="1104.75" width="120" height="41" as="geometry"/>
                </mxCell>
                <mxCell id="83" value="" style="group;fontSize=12;" parent="1" vertex="1" connectable="0">
                    <mxGeometry x="439" y="1362" width="662" height="48" as="geometry"/>
                </mxCell>
                <mxCell id="3" value="" style="rounded=0;whiteSpace=wrap;html=1;fillColor=#FFFFFF;fontSize=12;" parent="83" vertex="1">
                    <mxGeometry width="662" height="48" as="geometry"/>
                </mxCell>
                <mxCell id="4" value="Enhancement / Impacted App" style="rounded=0;whiteSpace=wrap;html=1;fillColor=#FF9800;fontStyle=1;strokeColor=#000000;fontSize=12;" parent="83" vertex="1">
                    <mxGeometry x="101" y="9" width="90" height="30" as="geometry"/>
                </mxCell>
                <mxCell id="6" value="Existing App&lt;br style=&quot;font-size: 12px;&quot;&gt;(Test Support)" style="rounded=0;whiteSpace=wrap;html=1;fillColor=#E1F5FE;fontStyle=1;strokeColor=#000000;fontSize=12;" parent="83" vertex="1">
                    <mxGeometry x="195" y="9" width="90" height="30" as="geometry"/>
                </mxCell>
                <mxCell id="7" value="Focus App" style="rounded=0;whiteSpace=wrap;html=1;fillColor=#2196F3;fontStyle=1;strokeColor=#000000;fontSize=12;labelBorderColor=none;fontColor=#FFFFFF;" parent="83" vertex="1">
                    <mxGeometry x="7" y="9" width="90" height="30" as="geometry"/>
                </mxCell>
                <mxCell id="74" value="" style="line;strokeWidth=2;html=1;labelBorderColor=none;strokeColor=#2196F3;fontSize=12;fillColor=#E1F5FE;" parent="83" vertex="1">
                    <mxGeometry x="289" y="34" width="88" height="10" as="geometry"/>
                </mxCell>
                <mxCell id="75" value="" style="line;strokeWidth=2;html=1;labelBorderColor=none;strokeColor=#2196F3;fontSize=12;fillColor=#E1F5FE;dashed=1;" parent="83" vertex="1">
                    <mxGeometry x="381" y="34" width="88" height="10" as="geometry"/>
                </mxCell>
                <mxCell id="76" value="" style="line;strokeWidth=2;html=1;labelBorderColor=none;strokeColor=#000000;fontSize=12;fillColor=#E1F5FE;" parent="83" vertex="1">
                    <mxGeometry x="473" y="34" width="88" height="10" as="geometry"/>
                </mxCell>
                <mxCell id="77" value="" style="line;strokeWidth=2;html=1;labelBorderColor=none;strokeColor=#000000;fontSize=12;fillColor=#E1F5FE;dashed=1;" parent="83" vertex="1">
                    <mxGeometry x="565" y="34" width="88" height="10" as="geometry"/>
                </mxCell>
                <mxCell id="79" value="&lt;font style=&quot;font-size: 12px;&quot;&gt;New Online&lt;br style=&quot;font-size: 12px;&quot;&gt;Interface&lt;/font&gt;" style="text;html=1;strokeColor=none;fillColor=none;align=center;verticalAlign=middle;whiteSpace=wrap;rounded=0;dashed=1;labelBorderColor=none;fontSize=12;" parent="83" vertex="1">
                    <mxGeometry x="290" y="7.5" width="87" height="25" as="geometry"/>
                </mxCell>
                <mxCell id="80" value="New Batch&lt;br style=&quot;font-size: 12px;&quot;&gt;Interface" style="text;html=1;strokeColor=none;fillColor=none;align=center;verticalAlign=middle;whiteSpace=wrap;rounded=0;dashed=1;labelBorderColor=none;fontSize=12;" parent="83" vertex="1">
                    <mxGeometry x="383" y="7.5" width="88" height="25" as="geometry"/>
                </mxCell>
                <mxCell id="81" value="Existing Online&lt;br style=&quot;font-size: 12px;&quot;&gt;Interface" style="text;html=1;strokeColor=none;fillColor=none;align=center;verticalAlign=middle;whiteSpace=wrap;rounded=0;dashed=1;labelBorderColor=none;fontSize=12;" parent="83" vertex="1">
                    <mxGeometry x="473" y="7.5" width="88" height="25" as="geometry"/>
                </mxCell>
                <mxCell id="82" value="Existing Batch&lt;br style=&quot;font-size: 12px;&quot;&gt;Interface" style="text;html=1;strokeColor=none;fillColor=none;align=center;verticalAlign=middle;whiteSpace=wrap;rounded=0;dashed=1;labelBorderColor=none;fontSize=12;" parent="83" vertex="1">
                    <mxGeometry x="565" y="7.5" width="88" height="25" as="geometry"/>
                </mxCell>
                <mxCell id="90" value="Product holding,&amp;nbsp;Multi-address" style="edgeStyle=none;html=1;strokeWidth=2;strokeColor=#2196F3;fontStyle=1;labelBackgroundColor=none;fontColor=#2196F3;entryX=0;entryY=0.5;entryDx=0;entryDy=0;fontSize=14;" parent="1" target="9" edge="1">
                    <mxGeometry y="10" relative="1" as="geometry">
                        <mxPoint x="831" y="328.37" as="sourcePoint"/>
                        <mxPoint x="1061" y="328.37" as="targetPoint"/>
                        <mxPoint as="offset"/>
                    </mxGeometry>
                </mxCell>
                <mxCell id="91" value="Product holding,&amp;nbsp;Multi-address" style="edgeStyle=none;html=1;strokeWidth=2;strokeColor=#2196F3;fontStyle=1;labelBackgroundColor=none;fontColor=#2196F3;fontSize=14;entryX=0;entryY=0.5;entryDx=0;entryDy=0;" parent="1" target="12" edge="1">
                    <mxGeometry x="-0.0377" y="10" relative="1" as="geometry">
                        <mxPoint x="1230" y="328.37" as="sourcePoint"/>
                        <mxPoint x="1448" y="328.37" as="targetPoint"/>
                        <mxPoint as="offset"/>
                    </mxGeometry>
                </mxCell>
                <mxCell id="92" value="Branch convergence" style="edgeStyle=none;html=1;fontStyle=1;labelBackgroundColor=none;fontColor=#2196F3;strokeWidth=2;strokeColor=#2196F3;entryX=0;entryY=0.145;entryDx=0;entryDy=0;entryPerimeter=0;fontSize=14;" parent="1" target="9" edge="1">
                    <mxGeometry x="-0.0435" y="10" relative="1" as="geometry">
                        <mxPoint x="831" y="280" as="sourcePoint"/>
                        <mxPoint x="1061" y="280" as="targetPoint"/>
                        <mxPoint as="offset"/>
                    </mxGeometry>
                </mxCell>
                <mxCell id="99" value="Query merged CIS ID" style="edgeStyle=none;html=1;fontSize=14;fontStyle=1;labelBackgroundColor=none;dashed=1;strokeWidth=2;strokeColor=#2196F3;fontColor=#2196F3;" parent="1" edge="1">
                    <mxGeometry x="-0.0438" y="8" relative="1" as="geometry">
                        <mxPoint x="830" y="1124.25" as="sourcePoint"/>
                        <mxPoint x="1080" y="1124.28" as="targetPoint"/>
                        <mxPoint as="offset"/>
                    </mxGeometry>
                </mxCell>
                <mxCell id="101" value="Query customer wealth current and 6m" style="edgeStyle=none;html=1;entryX=-0.02;entryY=0.847;entryDx=0;entryDy=0;strokeWidth=2;strokeColor=#2196F3;fontStyle=1;fontSize=14;fontColor=#2196F3;entryPerimeter=0;" parent="1" target="9" edge="1">
                    <mxGeometry x="-0.0093" y="10" relative="1" as="geometry">
                        <mxPoint x="830" y="377.5" as="sourcePoint"/>
                        <mxPoint x="1078.5" y="378" as="targetPoint"/>
                        <mxPoint as="offset"/>
                    </mxGeometry>
                </mxCell>
                <mxCell id="102" value="655 DIH-Open" style="shape=cylinder3;whiteSpace=wrap;html=1;boundedLbl=1;backgroundOutline=1;size=15;labelBorderColor=none;strokeColor=#000000;strokeWidth=1;fontSize=14;fontColor=#000000;fillColor=#E1F5FE;" parent="1" vertex="1">
                    <mxGeometry x="1080" y="1090.5" width="120" height="69.5" as="geometry"/>
                </mxCell>
                <mxCell id="136" value="Refund" style="edgeStyle=none;html=1;dashed=1;strokeColor=#000000;strokeWidth=1;fontSize=14;" parent="1" source="103" edge="1">
                    <mxGeometry y="10" relative="1" as="geometry">
                        <mxPoint as="offset"/>
                        <mxPoint x="1370" y="951.5" as="targetPoint"/>
                    </mxGeometry>
                </mxCell>
                <mxCell id="103" value="784 CSFs" style="rounded=0;whiteSpace=wrap;html=1;fillColor=#FF9800;fontStyle=0;fontSize=14;" parent="1" vertex="1">
                    <mxGeometry x="1080" y="930.5" width="120" height="41" as="geometry"/>
                </mxCell>
                <mxCell id="104" value="FATCA,&amp;nbsp;DQE" style="edgeStyle=none;html=1;fontStyle=0;fontSize=14;strokeColor=#000000;strokeWidth=1;fontColor=#000000;labelBackgroundColor=none;" parent="1" edge="1">
                    <mxGeometry x="0.0868" y="10" relative="1" as="geometry">
                        <mxPoint x="830" y="439.93999999999994" as="sourcePoint"/>
                        <mxPoint x="1080" y="440" as="targetPoint"/>
                        <mxPoint as="offset"/>
                    </mxGeometry>
                </mxCell>
                <mxCell id="105" value="Generate tax invoice" style="edgeStyle=none;html=1;strokeWidth=2;strokeColor=#2196F3;fontSize=14;fontStyle=1;fontColor=#2196F3;" parent="1" edge="1">
                    <mxGeometry x="0.0064" y="11" relative="1" as="geometry">
                        <mxPoint x="830" y="538.29" as="sourcePoint"/>
                        <mxPoint x="1080" y="538" as="targetPoint"/>
                        <mxPoint as="offset"/>
                    </mxGeometry>
                </mxCell>
                <mxCell id="107" value="801 SF" style="shape=cylinder3;whiteSpace=wrap;html=1;boundedLbl=1;backgroundOutline=1;size=15;labelBorderColor=none;strokeColor=#000000;strokeWidth=1;fontSize=20;fontColor=#FFFFFF;fillColor=#2196F3;fontStyle=1" parent="1" vertex="1">
                    <mxGeometry x="710" y="1170" width="120" height="100" as="geometry"/>
                </mxCell>
                <mxCell id="113" style="edgeStyle=none;html=1;labelBackgroundColor=none;strokeColor=#000000;strokeWidth=1;fontSize=14;fontColor=#000000;entryX=0;entryY=0.288;entryDx=0;entryDy=0;entryPerimeter=0;" parent="1" source="109" edge="1">
                    <mxGeometry relative="1" as="geometry">
                        <mxPoint x="710" y="302.9000000000001" as="targetPoint"/>
                    </mxGeometry>
                </mxCell>
                <mxCell id="109" value="Tablet" style="verticalLabelPosition=bottom;sketch=0;aspect=fixed;html=1;verticalAlign=top;strokeColor=none;align=center;outlineConnect=0;shape=mxgraph.citrix.tablet_2;labelBorderColor=none;strokeWidth=1;fontSize=16;fontColor=#000000;fillColor=#2196F3;" parent="1" vertex="1">
                    <mxGeometry x="440" y="260" width="82" height="86" as="geometry"/>
                </mxCell>
                <mxCell id="115" style="edgeStyle=none;html=1;labelBackgroundColor=none;strokeColor=#000000;strokeWidth=1;fontSize=14;fontColor=#000000;entryX=-0.008;entryY=0.487;entryDx=0;entryDy=0;entryPerimeter=0;" parent="1" edge="1">
                    <mxGeometry relative="1" as="geometry">
                        <mxPoint x="710" y="471.10000000000014" as="targetPoint"/>
                        <mxPoint x="522.96" y="471.5" as="sourcePoint"/>
                    </mxGeometry>
                </mxCell>
                <mxCell id="114" value="PC" style="verticalLabelPosition=bottom;sketch=0;aspect=fixed;html=1;verticalAlign=top;strokeColor=none;align=center;outlineConnect=0;shape=mxgraph.citrix.laptop_2;labelBorderColor=none;strokeWidth=1;fontSize=16;fontColor=#000000;fillColor=#2196F3;" parent="1" vertex="1">
                    <mxGeometry x="406.96" y="430" width="116" height="86.5" as="geometry"/>
                </mxCell>
                <mxCell id="118" style="edgeStyle=none;html=1;labelBackgroundColor=none;strokeColor=#000000;strokeWidth=1;fontSize=16;fontColor=#000000;" parent="1" source="117" edge="1">
                    <mxGeometry relative="1" as="geometry">
                        <mxPoint x="451" y="471.5" as="targetPoint"/>
                    </mxGeometry>
                </mxCell>
                <mxCell id="117" value="Call Center&lt;br&gt;SafeboxAdmin" style="sketch=0;pointerEvents=1;shadow=0;dashed=0;html=1;strokeColor=none;labelPosition=center;verticalLabelPosition=bottom;verticalAlign=top;align=center;fillColor=#505050;shape=mxgraph.mscae.intune.user_group;labelBorderColor=none;strokeWidth=1;fontSize=16;fontColor=#000000;" parent="1" vertex="1">
                    <mxGeometry x="191" y="453.5" width="50" height="37" as="geometry"/>
                </mxCell>
                <mxCell id="119" style="edgeStyle=none;html=1;labelBackgroundColor=none;strokeColor=#000000;strokeWidth=1;fontSize=16;fontColor=#000000;" parent="1" source="120" edge="1">
                    <mxGeometry relative="1" as="geometry">
                        <mxPoint x="440" y="303" as="targetPoint"/>
                    </mxGeometry>
                </mxCell>
                <mxCell id="120" value="Branch" style="sketch=0;pointerEvents=1;shadow=0;dashed=0;html=1;strokeColor=none;labelPosition=center;verticalLabelPosition=bottom;verticalAlign=top;align=center;fillColor=#505050;shape=mxgraph.mscae.intune.user_group;labelBorderColor=none;strokeWidth=1;fontSize=16;fontColor=#000000;" parent="1" vertex="1">
                    <mxGeometry x="180" y="285" width="50" height="37" as="geometry"/>
                </mxCell>
                <mxCell id="123" value="176.01 CIS-Open" style="rounded=0;whiteSpace=wrap;html=1;fillColor=#FF9800;fontStyle=0;fontSize=14;" parent="1" vertex="1">
                    <mxGeometry x="1080" y="1031.5" width="120" height="41" as="geometry"/>
                </mxCell>
                <mxCell id="124" value="Sync product holding" style="edgeStyle=none;html=1;fontSize=14;fontStyle=1;labelBackgroundColor=none;dashed=1;strokeWidth=2;strokeColor=#2196F3;fontColor=#2196F3;" parent="1" edge="1">
                    <mxGeometry x="-0.0536" y="12" relative="1" as="geometry">
                        <mxPoint x="830" y="1052" as="sourcePoint"/>
                        <mxPoint x="1080" y="1052" as="targetPoint"/>
                        <mxPoint as="offset"/>
                    </mxGeometry>
                </mxCell>
                <mxCell id="126" value="The sierra (monthly)" style="edgeStyle=none;html=1;fontSize=14;dashed=1;" parent="1" edge="1">
                    <mxGeometry x="-0.0478" y="9" relative="1" as="geometry">
                        <mxPoint x="1640" y="328.60000000000014" as="sourcePoint"/>
                        <mxPoint x="1850" y="329" as="targetPoint"/>
                        <mxPoint as="offset"/>
                    </mxGeometry>
                </mxCell>
                <mxCell id="127" value="710 SFV" style="rounded=0;whiteSpace=wrap;html=1;fillColor=#E1F5FE;fontStyle=0;fontSize=14;" parent="1" vertex="1">
                    <mxGeometry x="1851.5" y="308.5" width="120" height="41" as="geometry"/>
                </mxCell>
                <mxCell id="129" style="edgeStyle=none;html=1;fontSize=14;dashed=1;strokeWidth=2;strokeColor=#2196F3;entryX=0;entryY=0.5;entryDx=0;entryDy=0;" parent="1" target="130" edge="1">
                    <mxGeometry relative="1" as="geometry">
                        <mxPoint x="1640" y="377.60000000000014" as="sourcePoint"/>
                        <mxPoint x="1690" y="377.60000000000014" as="targetPoint"/>
                    </mxGeometry>
                </mxCell>
                <mxCell id="130" value="718.02 EBAN" style="rounded=0;whiteSpace=wrap;html=1;fillColor=#E1F5FE;fontStyle=0;fontSize=14;" parent="1" vertex="1">
                    <mxGeometry x="1851.5" y="357.5" width="120" height="41" as="geometry"/>
                </mxCell>
                <mxCell id="133" value="176.01 CIS-Open" style="rounded=0;whiteSpace=wrap;html=1;fillColor=#E1F5FE;fontStyle=0;fontSize=14;" parent="1" vertex="1">
                    <mxGeometry x="1370" y="981" width="120" height="41" as="geometry"/>
                </mxCell>
                <mxCell id="135" value="668 PCB" style="rounded=0;whiteSpace=wrap;html=1;fillColor=#FF9800;fontStyle=0;fontSize=14;" parent="1" vertex="1">
                    <mxGeometry x="1370" y="931" width="120" height="41" as="geometry"/>
                </mxCell>
                <mxCell id="155" style="edgeStyle=none;html=1;" parent="1" source="137" target="139" edge="1">
                    <mxGeometry relative="1" as="geometry"/>
                </mxCell>
                <mxCell id="137" value="775 SPE" style="rounded=0;whiteSpace=wrap;html=1;fillColor=#E1F5FE;fontStyle=0;fontSize=14;" parent="1" vertex="1">
                    <mxGeometry x="1701.5" y="620" width="120" height="41" as="geometry"/>
                </mxCell>
                <mxCell id="138" value="668 PCB" style="rounded=0;whiteSpace=wrap;html=1;fillColor=#E1F5FE;fontStyle=0;fontSize=14;" parent="1" vertex="1">
                    <mxGeometry x="2020" y="620" width="120" height="41" as="geometry"/>
                </mxCell>
                <mxCell id="156" style="edgeStyle=none;html=1;" parent="1" source="139" target="138" edge="1">
                    <mxGeometry relative="1" as="geometry"/>
                </mxCell>
                <mxCell id="139" value="668.11 CBSGW" style="rounded=0;whiteSpace=wrap;html=1;fillColor=#E1F5FE;fontStyle=0;fontSize=14;" parent="1" vertex="1">
                    <mxGeometry x="1860" y="620" width="120" height="41" as="geometry"/>
                </mxCell>
                <mxCell id="157" style="edgeStyle=none;html=1;exitX=1;exitY=0.5;exitDx=0;exitDy=0;" parent="1" source="144" target="145" edge="1">
                    <mxGeometry relative="1" as="geometry"/>
                </mxCell>
                <mxCell id="141" value="668 WSGW" style="rounded=0;whiteSpace=wrap;html=1;fillColor=#E1F5FE;fontStyle=0;fontSize=14;" parent="1" vertex="1">
                    <mxGeometry x="1701.5" y="670" width="120" height="41" as="geometry"/>
                </mxCell>
                <mxCell id="144" value="257 EAI คืนเงิน terminate, waive" style="rounded=0;whiteSpace=wrap;html=1;fillColor=#E1F5FE;fontStyle=0;fontSize=14;" parent="1" vertex="1">
                    <mxGeometry x="1701.5" y="720" width="120" height="41" as="geometry"/>
                </mxCell>
                <mxCell id="145" value="789 PHUB" style="rounded=0;whiteSpace=wrap;html=1;fillColor=#E1F5FE;fontStyle=0;fontSize=14;" parent="1" vertex="1">
                    <mxGeometry x="1860" y="720" width="120" height="41" as="geometry"/>
                </mxCell>
                <mxCell id="147" value="617.01 SE-Open" style="rounded=0;whiteSpace=wrap;html=1;fillColor=#E1F5FE;fontStyle=0;fontSize=14;" parent="1" vertex="1">
                    <mxGeometry x="1701.5" y="770" width="120" height="41" as="geometry"/>
                </mxCell>
                <mxCell id="148" value="499 ARE" style="rounded=0;whiteSpace=wrap;html=1;fillColor=#E1F5FE;fontStyle=0;fontSize=14;" parent="1" vertex="1">
                    <mxGeometry x="1701.5" y="820" width="120" height="41" as="geometry"/>
                </mxCell>
                <mxCell id="149" value="434 OGL" style="rounded=0;whiteSpace=wrap;html=1;fillColor=#E1F5FE;fontStyle=0;fontSize=14;" parent="1" vertex="1">
                    <mxGeometry x="1701.5" y="870" width="120" height="41" as="geometry"/>
                </mxCell>
                <mxCell id="150" value="780 CSM" style="rounded=0;whiteSpace=wrap;html=1;fillColor=#E1F5FE;fontStyle=0;fontSize=14;" parent="1" vertex="1">
                    <mxGeometry x="1370" y="470" width="120" height="41" as="geometry"/>
                </mxCell>
                <mxCell id="151" value="Consent" style="edgeStyle=none;html=1;fontStyle=0;fontSize=14;strokeColor=#000000;strokeWidth=1;fontColor=#000000;labelBackgroundColor=none;" parent="1" edge="1">
                    <mxGeometry x="0.0868" y="10" relative="1" as="geometry">
                        <mxPoint x="1200" y="489.99999999999994" as="sourcePoint"/>
                        <mxPoint x="1370" y="490.5" as="targetPoint"/>
                        <mxPoint as="offset"/>
                    </mxGeometry>
                </mxCell>
                <mxCell id="152" value="Consent" style="edgeStyle=none;html=1;fontStyle=0;fontSize=14;strokeColor=#000000;strokeWidth=1;fontColor=#000000;labelBackgroundColor=none;" parent="1" edge="1">
                    <mxGeometry x="0.0868" y="10" relative="1" as="geometry">
                        <mxPoint x="830" y="490.61000000000007" as="sourcePoint"/>
                        <mxPoint x="1080" y="491" as="targetPoint"/>
                        <mxPoint as="offset"/>
                    </mxGeometry>
                </mxCell>
                <mxCell id="153" value="Batch deduct and refund" style="edgeStyle=none;html=1;fontSize=14;entryX=0;entryY=0.5;entryDx=0;entryDy=0;verticalAlign=bottom;dashed=1;" parent="1" edge="1">
                    <mxGeometry x="-0.0619" relative="1" as="geometry">
                        <mxPoint x="1491.5" y="639.79" as="sourcePoint"/>
                        <mxPoint x="1701.5" y="640.19" as="targetPoint"/>
                        <Array as="points">
                            <mxPoint x="1590" y="640.19"/>
                        </Array>
                        <mxPoint as="offset"/>
                    </mxGeometry>
                </mxCell>
                <mxCell id="154" value="Online refund" style="edgeStyle=none;html=1;fontSize=14;entryX=0;entryY=0.5;entryDx=0;entryDy=0;verticalAlign=bottom;" parent="1" edge="1">
                    <mxGeometry x="-0.0619" relative="1" as="geometry">
                        <mxPoint x="1490" y="689.79" as="sourcePoint"/>
                        <mxPoint x="1700" y="690.19" as="targetPoint"/>
                        <Array as="points">
                            <mxPoint x="1588.5" y="690.19"/>
                        </Array>
                        <mxPoint as="offset"/>
                    </mxGeometry>
                </mxCell>
                <mxCell id="158" style="edgeStyle=none;html=1;" parent="1" target="161" edge="1">
                    <mxGeometry relative="1" as="geometry">
                        <mxPoint x="1821.5" y="690.5" as="sourcePoint"/>
                    </mxGeometry>
                </mxCell>
                <mxCell id="159" value="668 PCB" style="rounded=0;whiteSpace=wrap;html=1;fillColor=#E1F5FE;fontStyle=0;fontSize=14;" parent="1" vertex="1">
                    <mxGeometry x="2020" y="670" width="120" height="41" as="geometry"/>
                </mxCell>
                <mxCell id="160" style="edgeStyle=none;html=1;" parent="1" source="161" target="159" edge="1">
                    <mxGeometry relative="1" as="geometry"/>
                </mxCell>
                <mxCell id="161" value="668.11 CBSGW" style="rounded=0;whiteSpace=wrap;html=1;fillColor=#E1F5FE;fontStyle=0;fontSize=14;" parent="1" vertex="1">
                    <mxGeometry x="1860" y="670" width="120" height="41" as="geometry"/>
                </mxCell>
                <mxCell id="163" value="Inquiry check Bill Payment" style="edgeStyle=none;html=1;fontSize=14;entryX=0;entryY=0.5;entryDx=0;entryDy=0;verticalAlign=bottom;" parent="1" edge="1">
                    <mxGeometry x="-0.0588" relative="1" as="geometry">
                        <mxPoint x="1490" y="739.91" as="sourcePoint"/>
                        <mxPoint x="1700" y="740.3100000000001" as="targetPoint"/>
                        <Array as="points">
                            <mxPoint x="1588.5" y="740.3100000000001"/>
                        </Array>
                        <mxPoint as="offset"/>
                    </mxGeometry>
                </mxCell>
                <mxCell id="164" value="Inquiry statement" style="edgeStyle=none;html=1;fontSize=14;entryX=0;entryY=0.5;entryDx=0;entryDy=0;verticalAlign=bottom;" parent="1" edge="1">
                    <mxGeometry x="-0.0619" relative="1" as="geometry">
                        <mxPoint x="1491.5" y="789.9099999999999" as="sourcePoint"/>
                        <mxPoint x="1701.5" y="790.3100000000002" as="targetPoint"/>
                        <Array as="points">
                            <mxPoint x="1590" y="790.3100000000001"/>
                        </Array>
                        <mxPoint as="offset"/>
                    </mxGeometry>
                </mxCell>
                <mxCell id="165" value="Verify end-day result" style="edgeStyle=none;html=1;fontSize=14;entryX=0;entryY=0.5;entryDx=0;entryDy=0;verticalAlign=bottom;" parent="1" edge="1">
                    <mxGeometry x="-0.0619" relative="1" as="geometry">
                        <mxPoint x="1489.9999999999995" y="839.9099999999999" as="sourcePoint"/>
                        <mxPoint x="1699.9999999999995" y="840.3100000000002" as="targetPoint"/>
                        <Array as="points">
                            <mxPoint x="1588.5" y="840.3100000000001"/>
                        </Array>
                        <mxPoint as="offset"/>
                    </mxGeometry>
                </mxCell>
                <mxCell id="166" value="Verify end-day result" style="edgeStyle=none;html=1;fontSize=14;entryX=0;entryY=0.5;entryDx=0;entryDy=0;verticalAlign=bottom;" parent="1" edge="1">
                    <mxGeometry x="-0.0619" relative="1" as="geometry">
                        <mxPoint x="1489.9999999999995" y="889.9099999999999" as="sourcePoint"/>
                        <mxPoint x="1699.9999999999995" y="890.3100000000002" as="targetPoint"/>
                        <Array as="points">
                            <mxPoint x="1588.5" y="890.3100000000001"/>
                        </Array>
                        <mxPoint as="offset"/>
                    </mxGeometry>
                </mxCell>
                <mxCell id="172" value="Send a list of CIS IDs to create mail letters" style="edgeStyle=none;html=1;fontSize=14;exitX=0.96;exitY=0.65;exitDx=0;exitDy=0;exitPerimeter=0;labelBackgroundColor=none;" edge="1" parent="1" target="174" source="173">
                    <mxGeometry x="-0.0446" y="12" relative="1" as="geometry">
                        <mxPoint x="230" y="1046.5" as="sourcePoint"/>
                        <mxPoint x="-1" as="offset"/>
                    </mxGeometry>
                </mxCell>
                <mxCell id="173" value="SafeboxAdmin" style="sketch=0;pointerEvents=1;shadow=0;dashed=0;html=1;strokeColor=none;labelPosition=center;verticalLabelPosition=bottom;verticalAlign=top;align=center;fillColor=#505050;shape=mxgraph.mscae.intune.user_group;labelBorderColor=none;strokeWidth=1;fontSize=16;fontColor=#000000;" vertex="1" parent="1">
                    <mxGeometry x="191" y="1285" width="50" height="37" as="geometry"/>
                </mxCell>
                <mxCell id="177" value="Query customer address" style="edgeStyle=none;html=1;fontSize=14;labelBackgroundColor=none;" edge="1" parent="1" source="175" target="176">
                    <mxGeometry x="-0.0074" y="10" relative="1" as="geometry">
                        <mxPoint x="1200" y="1271" as="sourcePoint"/>
                        <mxPoint y="1" as="offset"/>
                    </mxGeometry>
                </mxCell>
                <mxCell id="178" value="Pass the file" style="edgeStyle=none;html=1;fontSize=15;" edge="1" parent="1" source="174" target="175">
                    <mxGeometry x="0.0591" y="10" relative="1" as="geometry">
                        <mxPoint x="1200" y="1350" as="sourcePoint"/>
                        <mxPoint as="offset"/>
                    </mxGeometry>
                </mxCell>
                <mxCell id="174" value="710 SFV" style="rounded=0;whiteSpace=wrap;html=1;fillColor=#E1F5FE;fontStyle=0;fontSize=14;" vertex="1" parent="1">
                    <mxGeometry x="1080" y="1290" width="120" height="40" as="geometry"/>
                </mxCell>
                <mxCell id="175" value="718.01 E-DOC GEN" style="rounded=0;whiteSpace=wrap;html=1;fillColor=#FF9800;fontStyle=0;fontSize=14;" vertex="1" parent="1">
                    <mxGeometry x="1370" y="1289" width="120" height="41" as="geometry"/>
                </mxCell>
                <mxCell id="176" value="176.01 CIS-Open" style="rounded=0;whiteSpace=wrap;html=1;fillColor=#E1F5FE;fontStyle=0;fontSize=14;" vertex="1" parent="1">
                    <mxGeometry x="1691.5" y="1289" width="120" height="41" as="geometry"/>
                </mxCell>
            </root>
        </mxGraphModel>
    </diagram>
</mxfile>